<svg width="124" height="48" viewBox="0 0 124 48" fill="none" xmlns="http://www.w3.org/2000/svg">
<path d="M9.58596 29.1163C7.45524 29.1163 5.57519 27.7062 5.29318 25.0428H17.5762C17.5762 18.3373 13.6594 15.2039 9.27262 15.2039C4.7605 15.2039 1.21974 18.6506 1.21974 23.8208C1.21974 28.9909 4.7605 32.4377 9.55463 32.4377C12.9074 32.4377 15.6335 31.1216 17.2002 27.3302L13.2834 26.7975C12.6567 28.2389 11.3407 29.1163 9.58596 29.1163ZM9.33529 18.5566C11.3093 18.5566 13.0014 20.0607 13.4087 22.1601H5.26185C5.66919 20.0607 7.36123 18.5566 9.33529 18.5566ZM20.7032 15.5172V32.1243H24.4633V22.7241C24.4633 20.3114 26.03 18.6193 28.2547 18.6193C30.0095 18.6193 31.1062 19.8727 31.1062 22.3794V32.1243H34.8663V21.9407C34.8663 17.1779 32.1715 15.2039 29.1634 15.2039C26.97 15.2039 25.3093 16.3319 24.526 17.5539H24.4633V15.5172H20.7032ZM46.7612 32.1243V28.7716C46.3852 28.8969 46.0719 28.9282 45.6645 28.9282C44.5678 28.9282 43.1891 28.5836 43.1891 26.3275V18.9013H46.7612V15.5172H43.1891V9.93975L39.429 11.3498V15.5172H36.609V18.9013H39.429V26.2335C39.429 30.7456 42.0924 32.3123 45.2572 32.3123C45.7899 32.3123 46.2599 32.2497 46.7612 32.1243ZM49.5894 15.5172V32.1243H53.3495V22.8181C53.3495 20.5307 54.9162 18.964 57.2036 18.964C57.5483 18.964 58.1123 19.0267 58.5823 19.2147V15.6112C58.1436 15.4546 57.7049 15.3606 57.2036 15.3606C55.2609 15.3606 54.0702 16.2066 53.4121 17.3033H53.3495V15.5172H49.5894ZM78.7695 15.5172L85.4437 32.1243H89.2038L96.0033 15.5172H91.8672L87.4178 27.4242H87.3551L83.031 15.5172H78.7695Z" fill="white"/>
<path d="M68.9524 32.4377C73.7465 32.4377 77.444 28.7089 77.444 23.8521C77.444 18.9953 73.7465 15.2666 68.9524 15.2666C64.1583 15.2666 60.4609 18.9953 60.4609 23.8521C60.4609 28.7089 64.1583 32.4377 68.9524 32.4377ZM68.9524 28.9282C66.3203 28.9282 64.3463 26.8289 64.3463 23.8521C64.3463 20.8754 66.3203 18.776 68.9524 18.776C71.5845 18.776 73.5585 20.8754 73.5585 23.8521C73.5585 26.8289 71.5845 28.9282 68.9524 28.9282Z" fill="#CAB603"/>
<path d="M95.6002 32.1734L102.274 15.5663H106.034L112.834 32.1734H108.698L104.248 20.2665H104.186L99.8617 32.1734H95.6002Z" fill="white"/>
</svg>
