<svg width="160" height="32" viewBox="0 0 160 32" fill="none" xmlns="http://www.w3.org/2000/svg">
<path d="M11.993 27.2758C8.93864 27.2758 6.24357 25.2702 5.83931 21.4819H23.4471C23.4471 11.9443 17.8324 7.48746 11.5439 7.48746C5.07571 7.48746 0 12.39 0 19.7437C0 27.0975 5.07571 32 11.9481 32C16.7543 32 20.6622 30.1281 22.9081 24.7354L17.2933 23.9777C16.395 26.0279 14.5084 27.2758 11.993 27.2758ZM11.6337 12.2563C14.4635 12.2563 16.8891 14.3955 17.473 17.3816H5.79439C6.37832 14.3955 8.80388 12.2563 11.6337 12.2563Z" fill="#012A36"/>
<path d="M27.9297 7.93315V31.5543H33.3199V18.1838C33.3199 14.7521 35.5657 12.3454 38.7549 12.3454C41.2703 12.3454 42.8424 14.1281 42.8424 17.6936V31.5543H48.2326V17.0696C48.2326 10.2953 44.3696 7.48746 40.0575 7.48746C36.9133 7.48746 34.5326 9.09192 33.4097 10.8301H33.3199V7.93315H27.9297Z" fill="#012A36"/>
<path d="M65.2841 31.5543V26.7855C64.7451 26.9638 64.2959 27.0084 63.712 27.0084C62.1399 27.0084 60.1635 26.5181 60.1635 23.3092V12.7465H65.2841V7.93315H60.1635V0L54.7734 2.00557V7.93315H50.7308V12.7465H54.7734V23.1755C54.7734 29.5933 58.5914 31.8217 63.1281 31.8217C63.8917 31.8217 64.5654 31.7326 65.2841 31.5543Z" fill="#012A36"/>
<path d="M69.3383 7.93315V31.5543H74.7284V18.3175C74.7284 15.0641 76.9743 12.8357 80.2533 12.8357C80.7474 12.8357 81.5559 12.9248 82.2297 13.1922V8.06685C81.6008 7.84401 80.972 7.71031 80.2533 7.71031C77.4684 7.71031 75.7615 8.91365 74.8183 10.4735H74.7284V7.93315H69.3383Z" fill="#012A36"/>
<path d="M97.0954 32C103.968 32 109.268 26.6964 109.268 19.7883C109.268 12.8802 103.968 7.5766 97.0954 7.5766C90.2229 7.5766 84.9226 12.8802 84.9226 19.7883C84.9226 26.6964 90.2229 32 97.0954 32ZM97.0954 27.0084C93.3223 27.0084 90.4924 24.0223 90.4924 19.7883C90.4924 15.5543 93.3223 12.5682 97.0954 12.5682C100.868 12.5682 103.698 15.5543 103.698 19.7883C103.698 24.0223 100.868 27.0084 97.0954 27.0084Z" fill="#84CC16"/>
<path d="M111.168 7.93315L120.736 31.5543H126.126L135.873 7.93315H129.944L123.566 24.8691H123.476L117.277 7.93315H111.168Z" fill="#012A36"/>
<path d="M135.295 31.6241L144.863 8.00293H150.253L160 31.6241H154.071L147.693 14.6882H147.603L141.404 31.6241H135.295Z" fill="#012A36"/>
</svg>
