<svg width="116" height="20" viewBox="0 0 116 20" fill="none" xmlns="http://www.w3.org/2000/svg">
<path d="M18.3039 8.97274L14.7883 12.0063L15.8594 16.5431C15.9185 16.7893 15.9033 17.0476 15.8156 17.2852C15.728 17.5229 15.572 17.7292 15.3671 17.8782C15.1623 18.0272 14.9179 18.1121 14.6649 18.1222C14.4118 18.1324 14.1614 18.0673 13.9453 17.9352L10 15.5071L6.05234 17.9352C5.83627 18.0666 5.58618 18.131 5.33355 18.1205C5.08092 18.11 4.83705 18.0249 4.63266 17.8761C4.42827 17.7272 4.27248 17.5212 4.18493 17.284C4.09737 17.0468 4.08196 16.789 4.14063 16.5431L5.21563 12.0063L1.7 8.97274C1.50883 8.80752 1.37057 8.58963 1.30249 8.34629C1.23441 8.10296 1.23952 7.84496 1.3172 7.60452C1.39488 7.36407 1.54167 7.15184 1.73924 6.99432C1.93682 6.83681 2.17642 6.74099 2.42813 6.71884L7.0375 6.34696L8.81563 2.04384C8.91187 1.80932 9.07568 1.60872 9.28623 1.46754C9.49677 1.32636 9.74455 1.25098 9.99805 1.25098C10.2515 1.25098 10.4993 1.32636 10.7099 1.46754C10.9204 1.60872 11.0842 1.80932 11.1805 2.04384L12.9578 6.34696L17.5672 6.71884C17.8194 6.74017 18.0597 6.83545 18.258 6.99275C18.4563 7.15005 18.6037 7.36236 18.6819 7.6031C18.7601 7.84383 18.7654 8.10228 18.6974 8.34606C18.6293 8.58984 18.4908 8.80811 18.2992 8.97352L18.3039 8.97274Z" fill="#84CC16"/>
<path d="M42.3039 8.97274L38.7883 12.0063L39.8594 16.5431C39.9185 16.7893 39.9033 17.0476 39.8156 17.2852C39.728 17.5229 39.572 17.7292 39.3671 17.8782C39.1623 18.0272 38.9179 18.1121 38.6649 18.1222C38.4118 18.1324 38.1614 18.0673 37.9453 17.9352L34 15.5071L30.0523 17.9352C29.8363 18.0666 29.5862 18.131 29.3335 18.1205C29.0809 18.11 28.837 18.0249 28.6327 17.8761C28.4283 17.7272 28.2725 17.5212 28.1849 17.284C28.0974 17.0468 28.082 16.789 28.1406 16.5431L29.2156 12.0063L25.7 8.97274C25.5088 8.80752 25.3706 8.58963 25.3025 8.34629C25.2344 8.10296 25.2395 7.84496 25.3172 7.60452C25.3949 7.36407 25.5417 7.15184 25.7392 6.99432C25.9368 6.83681 26.1764 6.74099 26.4281 6.71884L31.0375 6.34696L32.8156 2.04384C32.9119 1.80932 33.0757 1.60872 33.2862 1.46754C33.4968 1.32636 33.7445 1.25098 33.998 1.25098C34.2515 1.25098 34.4993 1.32636 34.7099 1.46754C34.9204 1.60872 35.0842 1.80932 35.1805 2.04384L36.9578 6.34696L41.5672 6.71884C41.8194 6.74017 42.0597 6.83545 42.258 6.99275C42.4563 7.15005 42.6037 7.36236 42.6819 7.6031C42.7601 7.84383 42.7654 8.10228 42.6974 8.34606C42.6293 8.58984 42.4908 8.80811 42.2992 8.97352L42.3039 8.97274Z" fill="#84CC16"/>
<path d="M66.3039 8.97274L62.7883 12.0063L63.8594 16.5431C63.9185 16.7893 63.9033 17.0476 63.8156 17.2852C63.728 17.5229 63.572 17.7292 63.3671 17.8782C63.1623 18.0272 62.9179 18.1121 62.6649 18.1222C62.4118 18.1324 62.1614 18.0673 61.9453 17.9352L58 15.5071L54.0523 17.9352C53.8363 18.0666 53.5862 18.131 53.3335 18.1205C53.0809 18.11 52.837 18.0249 52.6327 17.8761C52.4283 17.7272 52.2725 17.5212 52.1849 17.284C52.0974 17.0468 52.082 16.789 52.1406 16.5431L53.2156 12.0063L49.7 8.97274C49.5088 8.80752 49.3706 8.58963 49.3025 8.34629C49.2344 8.10296 49.2395 7.84496 49.3172 7.60452C49.3949 7.36407 49.5417 7.15184 49.7392 6.99432C49.9368 6.83681 50.1764 6.74099 50.4281 6.71884L55.0375 6.34696L56.8156 2.04384C56.9119 1.80932 57.0757 1.60872 57.2862 1.46754C57.4968 1.32636 57.7445 1.25098 57.998 1.25098C58.2515 1.25098 58.4993 1.32636 58.7099 1.46754C58.9204 1.60872 59.0842 1.80932 59.1805 2.04384L60.9578 6.34696L65.5672 6.71884C65.8194 6.74017 66.0597 6.83545 66.258 6.99275C66.4563 7.15005 66.6037 7.36236 66.6819 7.6031C66.7601 7.84383 66.7654 8.10228 66.6974 8.34606C66.6293 8.58984 66.4908 8.80811 66.2992 8.97352L66.3039 8.97274Z" fill="#84CC16"/>
<path d="M90.3039 8.97274L86.7883 12.0063L87.8594 16.5431C87.9185 16.7893 87.9033 17.0476 87.8156 17.2852C87.728 17.5229 87.572 17.7292 87.3671 17.8782C87.1623 18.0272 86.9179 18.1121 86.6649 18.1222C86.4118 18.1324 86.1614 18.0673 85.9453 17.9352L82 15.5071L78.0523 17.9352C77.8363 18.0666 77.5862 18.131 77.3335 18.1205C77.0809 18.11 76.837 18.0249 76.6327 17.8761C76.4283 17.7272 76.2725 17.5212 76.1849 17.284C76.0974 17.0468 76.082 16.789 76.1406 16.5431L77.2156 12.0063L73.7 8.97274C73.5088 8.80752 73.3706 8.58963 73.3025 8.34629C73.2344 8.10296 73.2395 7.84496 73.3172 7.60452C73.3949 7.36407 73.5417 7.15184 73.7392 6.99432C73.9368 6.83681 74.1764 6.74099 74.4281 6.71884L79.0375 6.34696L80.8156 2.04384C80.9119 1.80932 81.0757 1.60872 81.2862 1.46754C81.4968 1.32636 81.7445 1.25098 81.998 1.25098C82.2515 1.25098 82.4993 1.32636 82.7099 1.46754C82.9204 1.60872 83.0842 1.80932 83.1805 2.04384L84.9578 6.34696L89.5672 6.71884C89.8194 6.74017 90.0597 6.83545 90.258 6.99275C90.4563 7.15005 90.6037 7.36236 90.6819 7.6031C90.7601 7.84383 90.7654 8.10228 90.6974 8.34606C90.6293 8.58984 90.4908 8.80811 90.2992 8.97352L90.3039 8.97274Z" fill="#84CC16"/>
<path d="M114.304 8.97274L110.788 12.0063L111.859 16.5431C111.918 16.7893 111.903 17.0476 111.816 17.2852C111.728 17.5229 111.572 17.7292 111.367 17.8782C111.162 18.0272 110.918 18.1121 110.665 18.1222C110.412 18.1324 110.161 18.0673 109.945 17.9352L106 15.5071L102.052 17.9352C101.836 18.0666 101.586 18.131 101.334 18.1205C101.081 18.11 100.837 18.0249 100.633 17.8761C100.428 17.7272 100.272 17.5212 100.185 17.284C100.097 17.0468 100.082 16.789 100.141 16.5431L101.216 12.0063L97.7 8.97274C97.5088 8.80752 97.3706 8.58963 97.3025 8.34629C97.2344 8.10296 97.2395 7.84496 97.3172 7.60452C97.3949 7.36407 97.5417 7.15184 97.7392 6.99432C97.9368 6.83681 98.1764 6.74099 98.4281 6.71884L103.037 6.34696L104.816 2.04384C104.912 1.80932 105.076 1.60872 105.286 1.46754C105.497 1.32636 105.745 1.25098 105.998 1.25098C106.252 1.25098 106.499 1.32636 106.71 1.46754C106.92 1.60872 107.084 1.80932 107.18 2.04384L108.958 6.34696L113.567 6.71884C113.819 6.74017 114.06 6.83545 114.258 6.99275C114.456 7.15005 114.604 7.36236 114.682 7.6031C114.76 7.84383 114.765 8.10228 114.697 8.34606C114.629 8.58984 114.491 8.80811 114.299 8.97352L114.304 8.97274Z" fill="#84CC16"/>
</svg>
