<svg width="56" height="56" viewBox="0 0 56 56" fill="none" xmlns="http://www.w3.org/2000/svg">
<path opacity="0.2" d="M52.5 28L42 36.75H14L3.5 28L14 19.25H42L52.5 28Z" fill="#1AA578"/>
<path d="M15.1205 20.5953L6.23483 28L15.1205 35.4047C15.3021 35.5501 15.4529 35.7303 15.5641 35.9347C15.6753 36.1391 15.7446 36.3637 15.768 36.5952C15.7913 36.8267 15.7683 37.0606 15.7002 37.2831C15.632 37.5056 15.5202 37.7123 15.3713 37.8911C15.2223 38.0698 15.0392 38.2171 14.8326 38.3243C14.6261 38.4314 14.4002 38.4963 14.1683 38.5151C13.9364 38.5339 13.703 38.5063 13.4819 38.4338C13.2607 38.3614 13.0563 38.2456 12.8805 38.0931L2.38045 29.3431C2.18343 29.1789 2.02492 28.9733 1.91614 28.7411C1.80736 28.5088 1.75098 28.2554 1.75098 27.9989C1.75098 27.7424 1.80736 27.489 1.91614 27.2568C2.02492 27.0245 2.18343 26.8189 2.38045 26.6547L12.8805 17.9047C13.2373 17.6076 13.6974 17.4645 14.1598 17.5068C14.6221 17.549 15.0487 17.7732 15.3458 18.13C15.6428 18.4868 15.7859 18.947 15.7437 19.4093C15.7014 19.8717 15.4773 20.2983 15.1205 20.5953ZM53.6205 26.6547L43.1205 17.9047C42.9438 17.7576 42.7399 17.6468 42.5204 17.5785C42.3009 17.5102 42.0701 17.4858 41.8411 17.5068C41.6122 17.5277 41.3896 17.5935 41.1862 17.7004C40.9827 17.8074 40.8022 17.9533 40.6551 18.13C40.3581 18.4868 40.215 18.947 40.2572 19.4093C40.2995 19.8717 40.5237 20.2983 40.8805 20.5953L49.7661 28L40.8805 35.4047C40.6988 35.5501 40.548 35.7303 40.4368 35.9347C40.3256 36.1391 40.2563 36.3637 40.2329 36.5952C40.2096 36.8267 40.2326 37.0606 40.3008 37.2831C40.3689 37.5056 40.4807 37.7123 40.6296 37.8911C40.7786 38.0698 40.9617 38.2171 41.1683 38.3243C41.3748 38.4314 41.6007 38.4963 41.8326 38.5151C42.0646 38.5339 42.2979 38.5063 42.519 38.4338C42.7402 38.3614 42.9446 38.2456 43.1205 38.0931L53.6205 29.3431C53.8175 29.1789 53.976 28.9733 54.0848 28.7411C54.1935 28.5088 54.2499 28.2554 54.2499 27.9989C54.2499 27.7424 54.1935 27.489 54.0848 27.2568C53.976 27.0245 53.8175 26.8189 53.6205 26.6547ZM35.5976 7.105C35.3816 7.02657 35.1523 6.99146 34.9227 7.00167C34.6931 7.01188 34.4677 7.06722 34.2595 7.16451C34.0513 7.26181 33.8643 7.39917 33.7092 7.56874C33.5541 7.73831 33.4339 7.93678 33.3555 8.15281L19.3555 46.6528C19.2767 46.869 19.2413 47.0985 19.2514 47.3284C19.2614 47.5582 19.3167 47.7838 19.414 47.9923C19.5113 48.2007 19.6488 48.3879 19.8185 48.5432C19.9883 48.6985 20.187 48.8188 20.4033 48.8972C20.595 48.9653 20.797 49.0001 21.0005 49C21.3598 49 21.7105 48.8894 22.0048 48.6831C22.2991 48.4769 22.5228 48.185 22.6455 47.8472L36.6455 9.34718C36.7239 9.13116 36.759 8.9018 36.7488 8.67221C36.7386 8.44262 36.6832 8.21728 36.5859 8.00907C36.4886 7.80087 36.3513 7.61386 36.1817 7.45874C36.0121 7.30362 35.8137 7.18342 35.5976 7.105Z" fill="#1AA578"/>
</svg>
