<svg width="56" height="56" viewBox="0 0 56 56" fill="none" xmlns="http://www.w3.org/2000/svg">
<path opacity="0.2" d="M47.25 15.75V38.5H8.75V15.75C8.75 14.8217 9.11875 13.9315 9.77513 13.2751C10.4315 12.6187 11.3217 12.25 12.25 12.25H43.75C44.6783 12.25 45.5685 12.6187 46.2249 13.2751C46.8812 13.9315 47.25 14.8217 47.25 15.75Z" fill="#1AA578"/>
<path d="M50.75 36.75H49V15.75C49 14.3576 48.4469 13.0223 47.4623 12.0377C46.4777 11.0531 45.1424 10.5 43.75 10.5H12.25C10.8576 10.5 9.52226 11.0531 8.53769 12.0377C7.55312 13.0223 7 14.3576 7 15.75V36.75H5.25C4.78587 36.75 4.34075 36.9344 4.01256 37.2626C3.68437 37.5907 3.5 38.0359 3.5 38.5V42C3.5 43.3924 4.05312 44.7277 5.03769 45.7123C6.02226 46.6969 7.35761 47.25 8.75 47.25H47.25C48.6424 47.25 49.9777 46.6969 50.9623 45.7123C51.9469 44.7277 52.5 43.3924 52.5 42V38.5C52.5 38.0359 52.3156 37.5907 51.9874 37.2626C51.6592 36.9344 51.2141 36.75 50.75 36.75ZM10.5 15.75C10.5 15.2859 10.6844 14.8408 11.0126 14.5126C11.3408 14.1844 11.7859 14 12.25 14H43.75C44.2141 14 44.6592 14.1844 44.9874 14.5126C45.3156 14.8408 45.5 15.2859 45.5 15.75V36.75H10.5V15.75ZM49 42C49 42.4641 48.8156 42.9092 48.4874 43.2374C48.1592 43.5656 47.7141 43.75 47.25 43.75H8.75C8.28587 43.75 7.84075 43.5656 7.51256 43.2374C7.18437 42.9092 7 42.4641 7 42V40.25H49V42ZM33.25 19.25C33.25 19.7141 33.0656 20.1592 32.7374 20.4874C32.4093 20.8156 31.9641 21 31.5 21H24.5C24.0359 21 23.5908 20.8156 23.2626 20.4874C22.9344 20.1592 22.75 19.7141 22.75 19.25C22.75 18.7859 22.9344 18.3408 23.2626 18.0126C23.5908 17.6844 24.0359 17.5 24.5 17.5H31.5C31.9641 17.5 32.4093 17.6844 32.7374 18.0126C33.0656 18.3408 33.25 18.7859 33.25 19.25Z" fill="#1AA578"/>
</svg>
