<svg width="56" height="56" viewBox="0 0 56 56" fill="none" xmlns="http://www.w3.org/2000/svg">
<path opacity="0.2" d="M41.3044 17.9375L28 28L14.7 18.025C14.4827 17.862 14.3063 17.6506 14.1848 17.4076C14.0633 17.1646 14 16.8967 14 16.625V8.75C14 8.28587 14.1844 7.84075 14.5126 7.51256C14.8408 7.18437 15.2859 7 15.75 7H40.25C40.7141 7 41.1593 7.18437 41.4874 7.51256C41.8156 7.84075 42 8.28587 42 8.75V16.5462C41.9992 16.8161 41.9359 17.0821 41.8153 17.3234C41.6946 17.5648 41.5197 17.7749 41.3044 17.9375ZM14 39.375V47.25C14 47.7141 14.1844 48.1592 14.5126 48.4874C14.8408 48.8156 15.2859 49 15.75 49H40.25C40.7141 49 41.1593 48.8156 41.4874 48.4874C41.8156 48.1592 42 47.7141 42 47.25V39.4538C41.9998 39.1832 41.9369 38.9163 41.8162 38.6742C41.6955 38.432 41.5203 38.2211 41.3044 38.0581L28 28L14.7 37.975C14.4827 38.138 14.3063 38.3494 14.1848 38.5924C14.0633 38.8354 14 39.1033 14 39.375Z" fill="#1AA578"/>
<path d="M43.75 16.5462V8.75C43.75 7.82174 43.3813 6.9315 42.7249 6.27513C42.0685 5.61875 41.1783 5.25 40.25 5.25H15.75C14.8217 5.25 13.9315 5.61875 13.2751 6.27513C12.6187 6.9315 12.25 7.82174 12.25 8.75V16.625C12.2512 17.1681 12.3782 17.7036 12.6211 18.1894C12.864 18.6753 13.2162 19.0982 13.65 19.425L25.0841 28L13.65 36.575C13.2162 36.9018 12.864 37.3247 12.6211 37.8106C12.3782 38.2964 12.2512 38.8319 12.25 39.375V47.25C12.25 48.1783 12.6187 49.0685 13.2751 49.7249C13.9315 50.3812 14.8217 50.75 15.75 50.75H40.25C41.1783 50.75 42.0685 50.3812 42.7249 49.7249C43.3813 49.0685 43.75 48.1783 43.75 47.25V39.4538C43.7488 38.9127 43.6228 38.3792 43.3819 37.8947C43.141 37.4103 42.7916 36.9878 42.3609 36.6603L30.9028 28L42.3609 19.3397C42.7916 19.0122 43.141 18.5897 43.3819 18.1053C43.6228 17.6208 43.7488 17.0873 43.75 16.5462ZM40.25 47.25H15.75V39.375L28 30.1875L40.25 39.4516V47.25ZM40.25 16.5462L28 25.8125L15.75 16.625V8.75H40.25V16.5462Z" fill="#1AA578"/>
</svg>
