<svg width="56" height="56" viewBox="0 0 56 56" fill="none" xmlns="http://www.w3.org/2000/svg">
<path opacity="0.2" d="M47.0313 36.9053C45.5219 40.123 43.2239 42.9071 40.3506 44.9991L38.3031 42.9494C38.0837 42.7292 37.8097 42.5714 37.5091 42.4922L32.8125 41.2541C32.3962 41.1446 32.0348 40.8855 31.7975 40.5263C31.5603 40.1671 31.4637 39.7331 31.5263 39.3072L32.0469 35.7635C32.0909 35.4646 32.2115 35.1822 32.3971 34.9437C32.5826 34.7053 32.8267 34.5189 33.1056 34.4028L39.7688 31.6334C40.0766 31.5057 40.4145 31.4685 40.7427 31.5263C41.0709 31.584 41.3758 31.7343 41.6216 31.9594L47.0313 36.9053ZM34.9759 22.9688L39.8256 17.325C40.0983 17.0086 40.2488 16.6052 40.25 16.1875V10.9375C36.1923 8.01913 31.2268 6.64369 26.2459 7.05841C21.265 7.47312 16.5953 9.65079 13.0761 13.2C9.5569 16.7492 7.41901 21.4373 7.04666 26.4216C6.67432 31.4058 8.09192 36.3595 11.0447 40.3922L13.2147 38.966C13.455 38.8072 13.6524 38.5915 13.7894 38.3381C13.9264 38.0848 13.9988 37.8015 14 37.5135L14.0459 29.5881C14.0483 29.2447 14.151 28.9094 14.3413 28.6235L18.9219 21.7766C19.0532 21.5816 19.2225 21.4151 19.4197 21.287C19.6168 21.1589 19.8377 21.0718 20.0693 21.031C20.3008 20.9901 20.5382 20.9964 20.7673 21.0493C20.9963 21.1022 21.2124 21.2008 21.4025 21.3391L25.7359 24.1828C26.1008 24.4456 26.5523 24.5591 26.9981 24.5L33.88 23.5681C34.3066 23.51 34.6968 23.2966 34.9759 22.9688Z" fill="#1AA578"/>
<path d="M28 5.25C23.5005 5.25 19.102 6.58426 15.3608 9.08407C11.6196 11.5839 8.70364 15.1369 6.98175 19.294C5.25986 23.451 4.80933 28.0252 5.68715 32.4383C6.56496 36.8514 8.73169 40.905 11.9133 44.0867C15.095 47.2683 19.1486 49.4351 23.5617 50.3129C27.9748 51.1907 32.549 50.7402 36.7061 49.0183C40.8631 47.2964 44.4161 44.3804 46.9159 40.6392C49.4157 36.898 50.75 32.4995 50.75 28C50.7436 21.9683 48.3447 16.1854 44.0797 11.9204C39.8146 7.65528 34.0317 5.25637 28 5.25ZM28 8.75C31.7296 8.74604 35.3791 9.83176 38.5 11.8737V16.1875L33.6503 21.8181L26.7663 22.75L26.6984 22.7019L22.3956 19.8888C22.0141 19.62 21.5828 19.4303 21.1269 19.3307C20.671 19.2312 20.1998 19.2237 19.741 19.3089C19.2823 19.3941 18.8451 19.5702 18.4554 19.8268C18.0656 20.0834 17.7312 20.4154 17.4716 20.8031L12.8909 27.65C12.5094 28.2206 12.304 28.8908 12.3003 29.5772L12.25 37.5025L11.5347 37.9728C9.76635 35.0532 8.8061 31.716 8.75236 28.3031C8.69863 24.8901 9.55334 21.5243 11.2289 18.5505C12.9044 15.5767 15.3406 13.1019 18.2876 11.3797C21.2347 9.65758 24.5867 8.74999 28 8.75ZM13.6259 40.7903L14.1772 40.4294C14.6586 40.1119 15.054 39.6803 15.3284 39.1731C15.6028 38.666 15.7476 38.0988 15.75 37.5222L15.7959 29.5969L20.3809 22.75C20.4034 22.7673 20.4268 22.7833 20.4509 22.7981L24.7538 25.6134C25.4749 26.1224 26.3621 26.3389 27.2366 26.2194L34.125 25.2853C34.9745 25.1719 35.7528 24.7509 36.3125 24.1019L41.1622 18.4669C41.7046 17.8314 42.0017 17.0229 42 16.1875V14.8028C44.367 17.307 46.0173 20.4015 46.7782 23.7624C47.539 27.1232 47.3824 30.6267 46.3247 33.9062L42.7941 30.6775C42.3032 30.227 41.694 29.9259 41.038 29.8096C40.382 29.6934 39.7064 29.7668 39.0906 30.0213L32.4275 32.7884C31.8704 33.0223 31.3829 33.3957 31.012 33.8727C30.6411 34.3498 30.3993 34.9143 30.31 35.5119L29.7872 39.0534C29.6615 39.9059 29.8547 40.7747 30.3298 41.4936C30.8049 42.2124 31.5284 42.7308 32.3619 42.9494L37.0563 44.1875L37.5725 44.7059C33.7391 46.9054 29.265 47.7168 24.9034 47.0036C20.5418 46.2904 16.5591 44.0962 13.6259 40.7903ZM40.4688 42.6562L39.5281 41.7134C39.0894 41.273 38.5412 40.9574 37.94 40.7991L33.25 39.5609L33.7728 36.0194L40.4338 33.25L44.8438 37.2925C43.7198 39.3289 42.2377 41.1459 40.4688 42.6562Z" fill="#1AA578"/>
</svg>
