<svg width="115" height="24" viewBox="0 0 115 24" fill="none" xmlns="http://www.w3.org/2000/svg">
<path fill-rule="evenodd" clip-rule="evenodd" d="M4.62936 18.9346C4.82912 19.1863 5.04509 19.3779 5.24215 19.5996C5.42302 19.7774 5.61469 19.9553 5.81445 20.1277C5.98992 20.2591 6.17349 20.374 6.36786 20.4698C7.03734 20.8146 7.76351 20.9569 8.53828 20.9022C9.05929 20.8639 9.52901 20.7681 9.95013 20.6094C10.3767 20.4561 10.7762 20.2345 11.1622 19.9389C11.551 19.6461 11.9019 19.3368 12.2177 19.0085C12.539 18.6801 12.952 18.2395 13.4595 17.6812C13.6674 17.4732 13.9778 17.3501 14.3909 17.32C14.8363 17.2871 15.2115 17.3884 15.5058 17.6183C15.7946 17.8399 15.962 18.182 15.9944 18.6363C16.0214 19.0331 15.8972 19.5093 15.6299 20.0648C15.3573 20.6176 14.9308 21.1649 14.3396 21.6958C13.7538 22.2322 13.0033 22.6974 12.0828 23.086C11.1649 23.4801 10.0932 23.7181 8.87302 23.8057C6.07631 24.0082 3.84649 23.3542 2.18088 21.849C2.11339 21.7888 2.04591 21.7286 1.98112 21.663L1.97302 21.6575L1.96492 21.6465L1.95682 21.6411L1.94872 21.6329L1.94062 21.6246L1.93253 21.6164L1.92443 21.6082L1.91633 21.6028L1.91093 21.5945L1.90283 21.5891C0.998488 20.686 0.717737 19.7966 0.577361 18.8634C0.563863 18.6445 0.585459 18.4228 0.644849 18.2039C0.742032 17.8481 0.930999 17.5745 1.20365 17.3939C1.54919 17.1612 1.97572 17.0737 2.47513 17.1394C2.93675 17.1968 3.27419 17.3501 3.49555 17.5936L3.8114 17.974C4.19203 18.4256 4.16504 18.3517 4.62936 18.9346Z" fill="#012A36"/>
<path fill-rule="evenodd" clip-rule="evenodd" d="M12.7469 15.9299C9.59119 15.9299 6.45163 15.9737 3.30668 15.9408C1.64107 15.9244 -0.90459 15.6535 0.323697 11.16C0.636842 10.0215 1.26853 9.08563 2.00011 8.28381C2.73708 7.48745 3.64142 6.87445 4.71853 6.44755C5.79295 6.02064 6.98884 5.80444 8.29811 5.80444C10.0069 5.80444 11.4701 6.17115 12.6875 6.90182C13.9077 7.62976 14.8202 8.57115 15.433 9.7342C16.0377 10.8891 16.3427 12.0685 16.3427 13.2699C16.3427 14.381 16.0269 15.1062 15.3979 15.4373C14.7716 15.7657 13.8861 15.9299 12.7469 15.9299ZM4.22722 13.3848C4.57006 7.11528 12.1179 7.62428 12.1395 13.3848H4.22722Z" fill="#012A36"/>
<path d="M23.9688 8.45331V8.98968C24.7382 7.96072 25.5805 7.20815 26.4902 6.72651C27.4026 6.24761 28.4501 6.00952 29.6352 6.00952C30.7852 6.00952 31.811 6.26403 32.7234 6.77303C33.6305 7.27657 34.3053 7.99356 34.7535 8.924C35.0423 9.46585 35.2286 10.0487 35.315 10.6782C35.3987 11.3021 35.4418 12.1012 35.4418 13.0727V21.3126C35.4418 22.1965 35.2394 22.867 34.8426 23.3213C34.443 23.7755 33.9193 23.9999 33.2795 23.9999C32.6316 23.9999 32.1025 23.7701 31.6922 23.3049C31.2873 22.8396 31.0875 22.1746 31.0875 21.3126V13.932C31.0875 12.4761 30.885 11.3596 30.4855 10.5851C30.0887 9.81614 29.2896 9.42754 28.0964 9.42754C27.3217 9.42754 26.6117 9.66015 25.9665 10.1308C25.3294 10.6015 24.8597 11.2474 24.5654 12.0738C24.3522 12.7306 24.2415 13.9594 24.2415 15.7682V21.3126C24.2415 22.2075 24.0336 22.8779 23.626 23.3267C23.2157 23.7755 22.6866 23.9999 22.0441 23.9999C21.4151 23.9999 20.8968 23.7701 20.4918 23.3049C20.0896 22.8396 19.8871 22.1746 19.8871 21.3126V8.52172C19.8871 7.67885 20.068 7.04943 20.4271 6.63347C20.7915 6.2175 21.2828 6.00952 21.9118 6.00952C22.2951 6.00952 22.6434 6.10257 22.9484 6.28592C23.2589 6.46653 23.5045 6.74567 23.6908 7.10964C23.8771 7.4736 23.9688 7.92788 23.9688 8.45331Z" fill="#012A36"/>
<path d="M40.036 6.40639H40.5165V3.74641C40.5165 3.03216 40.5354 2.47389 40.5732 2.06887C40.611 1.66112 40.7136 1.31083 40.8837 1.02349C41.0538 0.719726 41.2967 0.470696 41.6207 0.28187C41.9365 0.0930445 42.2928 0 42.6897 0C43.2404 0 43.7371 0.210718 44.1852 0.632155C44.4849 0.914025 44.6711 1.2561 44.7521 1.66659C44.8358 2.06887 44.8736 2.64356 44.8736 3.39065V6.40639H46.4717C47.0899 6.40639 47.5623 6.5569 47.8863 6.84972C48.2129 7.14801 48.3776 7.53113 48.3776 7.98814C48.3776 8.58746 48.1427 9.00068 47.6784 9.23877C47.2141 9.47685 46.5527 9.59453 45.6862 9.59453H44.8736V17.7277C44.8736 18.4173 44.8952 18.9564 44.9438 19.3259C44.9924 19.6981 45.1192 20.0018 45.3271 20.2344C45.5377 20.467 45.8778 20.582 46.3475 20.582C46.5986 20.582 46.9468 20.5382 47.3842 20.4424C47.8188 20.3548 48.1643 20.3056 48.4046 20.3056C48.7582 20.3056 49.0768 20.4479 49.3602 20.738C49.6437 21.0253 49.7786 21.3783 49.7786 21.7998C49.7786 22.514 49.398 23.0559 48.634 23.4308C47.8647 23.8139 46.7606 24 45.3217 24C43.9557 24 42.9245 23.7701 42.2253 23.3049C41.5208 22.8397 41.0646 22.1966 40.8459 21.3729C40.6272 20.5546 40.5165 19.46 40.5165 18.0862V9.59453H39.9442C39.3126 9.59453 38.832 9.44401 38.5027 9.14025C38.1707 8.84196 38.006 8.45336 38.006 7.98814C38.006 7.53113 38.1815 7.14801 38.5243 6.84972C38.8752 6.5569 39.3773 6.40639 40.036 6.40639Z" fill="#012A36"/>
<path d="M55.7126 17.6155V21.3126C55.7126 22.2075 55.5048 22.8779 55.0917 23.3267C54.676 23.7755 54.1523 23.9999 53.5125 23.9999C52.8862 23.9999 52.3679 23.7755 51.963 23.3213C51.5607 22.867 51.3583 22.1965 51.3583 21.3126V8.98968C51.3583 7.00564 52.0683 6.00952 53.4801 6.00952C54.2009 6.00952 54.7246 6.24213 55.0404 6.70462C55.3644 7.16984 55.5372 7.8622 55.5695 8.77075C56.0906 7.8622 56.6251 7.16984 57.1758 6.70462C57.7265 6.24213 58.458 6.00952 59.3759 6.00952C60.291 6.00952 61.1819 6.24213 62.043 6.70462C62.9069 7.16984 63.3388 7.79105 63.3388 8.56004C63.3388 9.10188 63.1579 9.54521 62.7854 9.89823C62.421 10.2513 62.0214 10.4237 61.5976 10.4237C61.4383 10.4237 61.0496 10.3251 60.4395 10.1254C59.824 9.9256 59.2814 9.82708 58.8117 9.82708C58.1746 9.82708 57.6563 9.99675 57.246 10.3361C56.8437 10.6782 56.5252 11.1817 56.3011 11.8522C56.0771 12.5199 55.9259 13.3163 55.8395 14.2412C55.7558 15.1662 55.7126 16.2882 55.7126 17.6155Z" fill="#012A36"/>
<path d="M80.7567 15.0018C80.511 16.7861 79.7201 18.3843 78.5674 19.6021C77.169 21.0826 75.2334 21.9993 73.0954 21.9993C70.9601 21.9993 69.0245 21.0826 67.6235 19.6021C66.4735 18.3843 65.6825 16.7888 65.4341 15.0018C65.6825 13.2148 66.4735 11.6194 67.6235 10.4016C69.0245 8.9211 70.9601 8.00708 73.0954 8.00708C75.2334 8.00708 77.169 8.9211 78.5674 10.4016C79.7201 11.6194 80.511 13.2148 80.7567 15.0018ZM76.4374 15.01C76.4374 13.2066 76.0433 11.8055 75.2631 10.7984C74.4776 9.79955 73.4302 9.29602 72.1101 9.29602C71.2516 9.29602 70.5039 9.51495 69.856 9.96375C69.2054 10.4126 68.7033 11.0748 68.355 11.9505C67.9987 12.8235 67.8259 13.8497 67.8259 15.01C67.8259 16.1676 67.9987 17.1802 68.3442 18.0422C68.6925 18.9042 69.1838 19.5692 69.829 20.029C70.4715 20.4887 71.2354 20.7131 72.1101 20.7131C73.4302 20.7131 74.4776 20.2123 75.2631 19.1998C76.0433 18.19 76.4374 16.7916 76.4374 15.01Z" fill="#012A36"/>
<path d="M70.2551 6.16551C70.8463 6.06152 71.4645 6.00952 72.1097 6.00952C73.4297 6.00952 74.631 6.22298 75.7054 6.65536C76.7799 7.08774 77.7031 7.70622 78.4725 8.50804C79.2418 9.30713 79.8276 10.2567 80.2245 11.3651C80.2542 11.4472 80.2838 11.5292 80.3108 11.6113C79.9572 10.9956 79.5361 10.4291 79.0583 9.9256C77.533 8.311 75.4247 7.31488 73.095 7.31488C70.768 7.31488 68.6597 8.311 67.1344 9.9256C66.4434 10.6535 65.8737 11.5074 65.4553 12.4542C65.7253 10.7247 66.5027 9.17851 67.623 7.99356C68.3681 7.20815 69.2617 6.58147 70.2551 6.16551Z" fill="#012A36"/>
<path d="M67.467 22.8206C66.8515 22.4567 66.2927 22.0133 65.7933 21.4961C65.0239 20.6943 64.4354 19.7419 64.0359 18.6446C63.639 17.5445 63.4366 16.3321 63.4366 15.0049C63.4366 13.6667 63.639 12.438 64.0413 11.3269C64.4516 10.2131 65.0293 9.26076 65.7879 8.46988C66.2927 7.94719 66.8677 7.50386 67.5129 7.13989C67.3833 7.2603 67.2564 7.38619 67.1349 7.51481C65.6124 9.12393 64.6703 11.346 64.6703 13.798C64.6703 14.2058 64.6973 14.6081 64.7459 15.0021C64.6973 15.3962 64.6703 15.7985 64.6703 16.2063C64.6703 18.6582 65.6124 20.8804 67.1349 22.4895C67.2429 22.6017 67.3509 22.7139 67.467 22.8206Z" fill="#012A36"/>
<path d="M80.3108 18.3926C80.2811 18.4802 80.2515 18.5678 80.2191 18.6553C79.8087 19.7691 79.2256 20.7269 78.4563 21.5233C77.6923 22.3251 76.7691 22.9326 75.7054 23.3596C74.6418 23.7865 73.4405 23.9999 72.1097 23.9999C71.4699 23.9999 70.8625 23.9507 70.2875 23.8521C69.2806 23.4362 68.3762 22.804 67.623 22.0104C66.5027 20.8255 65.7253 19.2793 65.4553 17.5525C65.8737 18.4966 66.4434 19.3504 67.1344 20.0784C68.6597 21.693 70.768 22.6891 73.095 22.6891C75.4247 22.6891 77.533 21.693 79.0583 20.0784C79.5361 19.5748 79.9572 19.0084 80.3108 18.3926Z" fill="#012A36"/>
<path d="M86.9162 8.76528L90.4472 18.8223L94.2509 8.32742C94.5505 7.48729 94.8393 6.88797 95.1309 6.53495C95.4197 6.18466 95.8544 6.00952 96.4402 6.00952C96.9963 6.00952 97.466 6.19561 97.852 6.57874C98.2408 6.95365 98.4378 7.39151 98.4378 7.88957C98.4378 8.08387 98.4054 8.311 98.3325 8.57098C98.2624 8.83096 98.1868 9.07452 98.0923 9.30166C98.0005 9.52606 97.8979 9.78877 97.7818 10.0761L93.5949 20.6148C93.4761 20.9131 93.3276 21.3017 93.1386 21.7669C92.9524 22.2294 92.7445 22.6234 92.515 22.9546C92.2856 23.2884 92.0021 23.5429 91.6701 23.7236C91.33 23.9069 90.9277 23.9999 90.4472 23.9999C89.829 23.9999 89.3377 23.8576 88.9679 23.5703C88.6034 23.2884 88.3281 22.971 88.1553 22.6289C87.9798 22.2923 87.6802 21.6164 87.2645 20.6148L83.1126 10.1911C83.0127 9.93107 82.9155 9.6711 82.8156 9.41112C82.7131 9.15114 82.6321 8.89116 82.5592 8.62024C82.489 8.34932 82.4566 8.11671 82.4566 7.92241C82.4566 7.61864 82.5484 7.32035 82.7293 7.02206C82.9101 6.72104 83.1612 6.48022 83.477 6.29139C83.7983 6.10257 84.1438 6.00952 84.519 6.00952C85.2398 6.00952 85.7419 6.2175 86.0146 6.63894C86.2818 7.06585 86.5815 7.77463 86.9162 8.76528Z" fill="#012A36"/>
<path d="M103.478 21.2442L107.009 11.1872L110.813 21.682C111.113 22.5222 111.402 23.1215 111.693 23.4745C111.982 23.8248 112.417 23.9999 113.002 23.9999C113.558 23.9999 114.028 23.8139 114.414 23.4307C114.803 23.0558 115 22.618 115 22.1199C115 21.9256 114.968 21.6985 114.895 21.4385C114.825 21.1785 114.749 20.935 114.654 20.7078C114.563 20.4807 114.46 20.2207 114.344 19.9334L110.157 9.3947C110.038 9.09641 109.89 8.70781 109.701 8.24259C109.515 7.7801 109.307 7.38603 109.077 7.0549C108.848 6.72104 108.564 6.46653 108.232 6.28592C107.892 6.10257 107.49 6.00952 107.009 6.00952C106.391 6.00952 105.9 6.15183 105.53 6.43917C105.166 6.72104 104.89 7.03848 104.717 7.38056C104.542 7.71716 104.242 8.3931 103.827 9.3947L99.6748 19.8184C99.5749 20.0784 99.4777 20.3384 99.3805 20.5984C99.2752 20.8583 99.1942 21.1183 99.1214 21.3892C99.0512 21.6602 99.0188 21.8928 99.0188 22.0871C99.0188 22.3908 99.1106 22.6891 99.2914 22.9874C99.4723 23.2857 99.7233 23.5293 100.039 23.7181C100.36 23.9069 100.706 23.9999 101.081 23.9999C101.802 23.9999 102.304 23.7892 102.577 23.3705C102.844 22.9436 103.144 22.2348 103.478 21.2442Z" fill="#012A36"/>
</svg>
