<svg width="430" height="315" viewBox="0 0 430 315" fill="none" xmlns="http://www.w3.org/2000/svg">
<g opacity="0.3">
<path d="M398.966 16.2465L359.157 6.69702C359.033 6.69702 358.909 6.69702 358.661 6.69702L300.992 0H300.868H300.744L278.297 1.61224L261.058 2.85242L213.435 15.6263L182.059 25.0517L148.946 41.298L116.701 63.1253L87.3088 89.2931L62.6292 117.941L44.2745 147.334L44.1505 147.458L23.6874 187.516V187.64L8.8053 227.201L8.68121 227.449L6.44891 253.245L5.58075 263.415V263.539L-6.10352e-05 327.16V327.408L14.8821 389.417L27.2839 429.227V429.351L27.408 429.723L27.532 429.847L62.009 486.275L62.1331 486.399C62.1331 486.523 62.2571 486.523 62.2571 486.647L91.6494 516.164L92.0215 516.536H92.1454L141.505 558.95L141.753 559.198L202.026 584.002L240.843 597.272H241.091L300 600L339.81 599.752L385.324 588.218L418.685 574.08L451.798 558.702L484.167 536.875L513.187 510.335L536.999 480.819L554.237 455.147L577.801 412.609L589.954 371.807L598.264 316.246V316.122V315.998L598.016 272.592L586.11 210.459V210.211L569.243 172.013V171.889L537.371 114.469L537.247 114.221L489.004 68.8301V68.7061L457.255 43.7784C457.007 43.6544 456.759 43.5304 456.511 43.4064L398.966 16.1224V16.2465ZM455.147 47.0029L475.982 63.3734L428.111 39.9339L427.615 38.8177L412.36 26.788L455.147 47.0029ZM566.019 173.75L570.36 183.547L554.857 155.891V154.031L554.237 152.666L566.019 173.75ZM594.791 315.75L581.521 360.273L569.491 315.378L569.739 314.882L584.994 264.531L594.791 311.41V315.75ZM513.807 503.638L510.583 507.606L481.935 533.774H481.811L479.702 533.03L515.544 500.289L513.807 503.638ZM384.456 584.622L382.596 585.118L350.599 580.529L404.671 555.353L405.043 555.105L429.847 564.531L409.756 573.956L384.456 584.622ZM325.424 596.155L299.132 594.667L346.011 582.637L347.375 582.017L377.635 586.358L339.562 596.031L325.424 596.155ZM241.587 593.551L240.471 593.179L228.441 589.086L192.476 574.08L240.223 573.584L241.339 573.336L283.878 593.303L241.587 593.551ZM94.0057 513.187L91.6494 510.831L60.2728 459.859L99.9586 472.881H100.331L134.56 526.829L94.0057 513.187ZM261.43 6.44897L282.513 4.96075L243.82 13.8901L241.959 13.394L233.402 14.014L261.43 6.44897ZM397.23 19.7189L420.422 38.0736L356.924 26.912L356.676 26.4159L337.701 11.1617L389.169 17.8586L397.23 19.7189ZM580.157 364.738L552.625 414.345L536.875 373.543L568.127 317.735L580.529 363.621L580.157 364.738ZM432.079 563.291L406.904 553.741L460.976 517.28L476.602 533.278L432.079 563.291ZM236.255 17.6106L187.267 47.0029L186.399 46.7549L176.106 47.499L212.195 19.7189L214.179 19.0989L236.255 17.6106ZM344.647 579.165L305.457 556.222L368.458 526.705L401.199 552.749L344.895 579.041L344.647 579.165ZM438.156 73.9149L437.412 114.469L367.094 89.2931L368.21 56.3043L438.156 73.9149ZM80.7358 132.451L126.871 107.152L79.8677 142.497L80.6118 132.824L80.7358 132.451ZM86.0686 118.313L128.235 104.299L81.728 129.723L85.8206 118.809L86.0686 118.313ZM95.2459 103.679L130.715 101.447L87.5568 115.833L94.8738 103.927L95.2459 103.679ZM107.524 89.4172L133.568 99.3386L96.9822 101.571L107.524 89.4172ZM156.139 56.4283L168.789 52.7078L141.877 92.6416L155.767 56.6763L156.139 56.4283ZM172.013 51.7156L182.803 50.9716L144.977 91.0294L171.393 51.8396L172.013 51.7156ZM263.539 22.6953L277.057 33.857L207.11 57.1724L200.537 51.5916L263.043 22.5714L263.539 22.6953ZM364.365 55.6842L363.373 88.301L288.342 77.0154L289.458 54.072L364.365 55.6842ZM430.839 479.826L394.502 435.924L452.79 383.092L486.771 428.855L430.839 479.826ZM290.699 211.947L236.007 165.688L259.942 137.412L324.432 171.765L290.699 211.947ZM132.575 161.72L148.698 153.907L169.285 213.063L137.66 228.318L132.575 161.72ZM167.797 141.009L182.307 128.111L231.666 164.572L203.514 189.748L167.797 141.009ZM149.318 149.194L139.768 104.547L164.076 139.272L149.318 149.194ZM180.446 124.638L142.993 102.067L191.484 111.616L180.446 124.638ZM178.958 126.003L165.564 138.032L141.257 103.307L178.958 126.003ZM192.848 110.004L145.225 100.579L200.785 96.9822L192.848 110.004ZM147.582 150.186L132.699 157.379L138.156 106.036L147.582 150.186ZM233.03 163.332L183.547 126.747L195.453 112.733L256.222 135.8L233.03 163.332ZM201.902 94.998L147.458 98.4705L206.242 82.9682L201.902 94.998ZM130.715 158.371L116.825 162.34L136.048 107.896L130.715 158.371ZM150.31 153.038L166.184 142.249L201.902 191.112L170.897 212.071L150.31 153.038ZM257.462 134.188L196.569 110.996L205.126 96.9822L274.08 106.408L257.462 134.188ZM206.986 80.8599L149.318 96.1141L207.482 70.5664L206.986 80.8599ZM114.717 163.084L102.811 163.704L133.568 109.632L114.717 163.084ZM115.709 166.68L130.715 162.34L135.8 229.186L106.035 237.619L115.709 166.68ZM234.642 167.053L289.334 213.311L248.532 250.021L205.746 192.972L234.642 167.053ZM292.187 215.792L347.995 268.127L297.52 313.642L250.889 252.873L292.187 215.792ZM349.235 266.763L293.427 214.427L327.532 173.75L390.657 216.908L349.235 266.763ZM325.424 170.277L260.934 135.8L278.049 107.276L349.359 129.723L325.424 170.277ZM275.072 104.671L205.87 95.122L210.583 82.1001L284.126 78.6276L275.072 104.671ZM204.506 60.3969L207.482 68.4581L150.186 93.6338L204.506 60.3969ZM100.455 163.828L91.1533 161.224L130.715 110.748L100.455 163.828ZM100.827 167.673L113.725 166.929L104.051 238.115L78.2554 239.355L100.827 167.673ZM204.258 194.088L247.044 251.137L201.902 281.645L172.261 215.668L204.258 194.088ZM249.276 254.113L295.907 314.882L240.099 352.708L203.638 285.118L249.276 254.113ZM298.264 317.859L345.019 377.511L282.513 419.802L241.959 355.932L298.264 317.859ZM346.631 376.271L299.876 316.618L350.723 270.732L403.059 325.176L346.631 376.271ZM391.773 215.42L328.648 172.261L352.956 131.211L421.042 165.068L391.773 215.42ZM350.227 128.111L278.793 105.54L288.094 78.8756L363.001 90.1613L350.227 128.111ZM284.622 76.7673L210.707 80.2398L211.451 69.0782L285.614 54.3199L284.622 76.7673ZM211.203 67.3419L207.978 58.7847L278.545 35.2212L285.366 52.5837L211.203 67.3419ZM197.065 53.5759L203.39 58.9086L149.938 91.6495L197.065 53.5759ZM89.4171 160.48L83.2162 154.899L128.359 110.748L89.4171 160.48ZM89.045 164.572L98.9664 167.301L76.3952 239.231L56.3042 233.402L89.045 164.572ZM136.42 232.906L152.542 305.333L109.136 317.487L105.787 241.587L136.42 232.906ZM138.156 232.286L170.649 216.66L200.289 282.637L154.279 304.713L138.156 232.286ZM202.026 285.986L238.487 353.576L181.439 380.736L155.271 308.309L202.026 285.986ZM240.347 356.8L280.901 420.67L217.032 450.93L182.927 384.208L240.347 356.8ZM347.499 380.364L390.781 434.188L326.168 477.842L284.87 422.778L347.499 380.364ZM392.145 433.072L348.863 379.248L405.539 328.028L450.434 380.116L392.145 433.072ZM404.299 323.811L351.964 269.368L393.634 219.264L450.434 267.879L404.299 323.811ZM421.786 163.332L353.7 129.475L366.722 91.0294L437.164 116.205L421.786 163.332ZM186.027 50.7235L194.833 52.9558L148.078 90.6573L185.655 50.7235H186.027ZM138.9 94.8739L139.148 64.7375L153.038 57.9165L138.9 94.8739ZM126.871 109.508L82.348 153.038L79.6196 144.977L126.871 109.508ZM80.8598 157.875L87.3088 163.704L54.5679 232.41L41.298 220.132L80.8598 157.875ZM77.5113 243.2L104.051 241.96L107.4 317.859L69.6982 319.347L77.5113 243.2ZM153.659 309.053L179.702 381.48L125.878 396.238L109.632 321.331L153.659 309.053ZM181.191 384.952L215.171 451.55L154.775 467.673L126.871 399.711L181.191 384.952ZM283.133 423.77L324.432 478.834L258.206 509.963L219.016 454.155L283.133 423.77ZM393.138 437.164L429.351 480.943L367.218 522.861L328.4 480.694L393.138 437.164ZM431.831 483.919L458.371 514.551L403.059 551.881L370.07 525.589L431.831 483.919ZM488.136 427.491L454.155 381.852L501.529 323.936L533.526 371.434L488.136 427.491ZM451.674 378.752L406.78 326.664L453.038 270.608L499.049 320.835L451.674 378.752ZM451.426 266.267L394.75 217.652L424.266 166.929L483.919 209.715L451.426 266.267ZM353.576 28.6483L363.869 53.6999L289.334 52.0876L282.389 34.3531L353.576 28.6483ZM241.587 17.2386L260.19 21.8273L198.925 50.2274L198.677 50.1034L189.748 47.8711L240.223 17.4866L241.587 17.2386ZM137.288 65.9777L137.04 96.8583L123.398 75.4031L137.288 65.9777ZM135.552 98.2224L109.012 88.0529L121.786 76.6432L135.552 98.2224ZM79.4957 156.511L40.5539 217.9L34.9731 200.909L35.097 200.165L76.6432 148.202L79.4957 156.511ZM54.94 236.999L75.527 242.952L67.7139 318.975L38.4456 310.045L54.94 236.999ZM107.772 321.579L124.018 396.362L77.2632 397.726L69.5742 323.067L107.772 321.579ZM125.134 400.083L152.914 467.797L100.579 468.913L78.2554 401.447L125.134 400.083ZM217.28 454.899L256.346 510.583L193.84 527.077L156.759 471.145L217.28 454.899ZM326.788 481.811L365.482 523.853L301.86 553.741L260.686 512.939L326.788 481.811ZM459.983 513.311L433.32 482.679L488.88 432.079L509.715 467.921L459.983 513.311ZM566.267 313.27L534.642 369.698L502.77 322.199L536.007 263.663L566.391 313.022L566.267 313.27ZM500.165 319.099L454.155 268.995L486.771 212.319L533.526 260.314L500.165 319.099ZM484.663 207.979L425.134 165.316L440.637 117.941L501.405 155.023L484.663 207.979ZM424.39 41.1741L437.412 71.6825L368.21 54.196L357.792 28.8962L423.646 40.43L424.39 41.1741ZM331.873 11.1617L351.343 26.788L281.645 32.6168V32.4928L267.879 21.2072L330.384 10.7896L331.873 11.1617ZM105.043 86.5647L104.423 87.3088L93.1376 88.9211L117.693 67.0939L120.174 73.1708L105.043 86.5647ZM102.439 89.4172L92.0215 101.571L91.1533 102.935L70.3182 114.345L89.6651 91.7735L90.4092 91.1534L102.439 89.4172ZM75.8991 146.093L35.3451 196.817L37.0814 176.726L37.7015 175.238L76.6432 136.172L75.8991 145.721V146.093ZM53.2038 236.255L36.8334 308.805L17.9826 290.823L17.8586 290.327L39.8098 223.853L53.2038 236.255ZM67.7139 322.943L75.279 397.23L39.0657 385.697L38.9417 385.573L37.9495 313.766L67.7139 322.943ZM76.1472 401.571L98.2224 468.293L58.2885 455.147L57.6684 454.527L39.8098 390.037L76.1472 401.571ZM154.651 471.641L191.484 527.077L137.66 527.945L137.164 527.821L102.315 472.881L154.651 471.641ZM258.95 513.807L299.752 554.237L239.975 569.74H239.603L196.693 530.178L258.95 513.807ZM302.852 557.338L303.348 557.09L342.042 579.661L289.954 593.055H288.466L244.44 572.344L302.852 557.338ZM551.261 416.577L510.955 466.308L490.244 430.591L535.386 375.155L551.385 416.329L551.261 416.577ZM582.761 258.578L567.011 310.666L536.999 261.802L553.865 207.358L582.761 257.462V258.578ZM551.013 203.638L534.146 258.33L487.763 210.459L504.63 157.503L551.137 203.266V203.638H551.013ZM501.902 107.772L501.529 152.914L441.133 116.081L442.001 75.5271L501.778 107.524L501.902 107.772ZM265.895 19.7189L265.275 19.2228L247.912 15.0063L294.791 4.09259L300.496 3.72058L325.672 9.79749L265.895 19.7189ZM207.11 21.3312L172.757 47.8711L171.641 47.9951L159.859 51.4676L181.066 29.6404L183.175 28.6483L207.11 21.3312ZM156.263 52.4597L154.899 52.8318L141.505 59.4048L149.442 45.2667L150.682 44.3985L176.106 31.8727L156.263 52.4597ZM138.404 60.893L137.412 61.389L121.538 72.0546L119.057 65.8537L145.721 47.747L138.404 60.893ZM66.8458 118.437L89.169 106.284L82.472 117.073L81.8519 118.561L51.4675 142.497L65.3575 120.174L66.8458 118.437ZM47.4989 149.07L48.7391 147.21L80.7358 122.034L77.0153 131.955L76.8912 133.196L39.3137 170.897L47.4989 149.07ZM31.6246 202.398L10.0455 254.237L12.2778 228.318L15.9983 218.644L32.8647 183.547L31.2526 201.282L31.6246 202.398ZM9.42535 260.438L32.4927 205.126L38.0735 222.117L38.3216 222.365L16.8665 287.226L9.17731 263.043L9.42535 260.438ZM36.2133 313.394L37.2054 383.96L14.3861 361.761L13.766 359.901L17.1144 295.287L36.2133 313.394ZM30.5085 427.739L26.0438 413.353L14.7581 367.466L37.0814 389.169L37.7015 389.293L54.94 451.798L30.5085 427.739ZM194.212 530.798L194.585 530.674L236.875 569.74L186.027 570.236L184.291 569.616L141.009 531.542L194.212 530.798ZM441.133 559.446L478.09 534.518L479.95 535.138L450.062 555.229L441.133 559.446ZM478.09 532.162L462.464 516.04L511.203 471.641L518.148 495.577L478.09 532.162ZM554.237 418.933L580.033 372.675L576.064 406.16L574.576 411.12L553.741 448.698V419.554L554.237 418.933ZM554.609 204.878L554.733 204.382L554.857 159.611L578.669 202.15L582.637 211.079L582.885 253.493L554.609 204.878ZM551.013 154.775V200.785L505.126 155.519L505.622 110.5L550.393 153.162L551.013 154.775ZM442.001 73.2948V73.0468L429.103 42.6623L482.927 68.9542L485.903 71.3105L500.413 104.671L442.001 73.2948ZM358.289 10.2935L372.055 13.642L334.973 8.80536L333.609 7.68915L331.253 7.06909L358.289 10.2935ZM33.2368 178.214L23.4394 198.553L27.0359 189.128L33.3608 176.602L33.2368 178.214ZM14.6341 292.807L15.2542 293.427L12.1537 354.568L3.5965 327.036L8.30914 272.84L14.6341 292.807ZM56.3042 458.495L57.4203 458.867L85.9445 505.002L74.1628 493.22L64.9855 484.167L38.5696 441.009L56.3042 458.495ZM137.164 531.666H138.28L179.702 568.127L143.613 555.85L101.571 519.76L137.164 531.666ZM519.636 493.84L512.691 470.153L551.757 421.786V452.046L551.137 453.162L544.936 462.34L519.636 493.84ZM579.289 395.37L582.513 368.21L583.506 366.35L590.823 341.918L586.482 370.938L579.289 395.37ZM594.419 272.84L594.543 290.947L594.667 301.86L586.11 260.81L586.482 259.446L586.606 259.198L586.482 231.17L594.419 272.84ZM534.146 116.577L548.408 148.822L505.622 107.896V107.028L492.848 77.7595L534.146 116.577Z" fill="#84CC16"/>
</g>
</svg>
